SplineFontDB: 3.2
FontName: Roland
FullName: Roland
FamilyName: Roland
Weight: Light
Copyright: Copyright (c) 2020, Roland Bernard
UComments: "2020-8-27: Created with FontForge (http://fontforge.org)"
Version: 001.000
ItalicAngle: 0
UnderlinePosition: -100
UnderlineWidth: 50
Ascent: 800
Descent: 200
InvalidEm: 0
LayerCount: 2
Layer: 0 0 "Back" 1
Layer: 1 0 "Fore" 0
XUID: [1021 36 1614478912 4304313]
FSType: 0
OS2Version: 0
OS2_WeightWidthSlopeOnly: 0
OS2_UseTypoMetrics: 1
CreationTime: 1598555393
ModificationTime: 1599760183
PfmFamily: 17
TTFWeight: 1
TTFWidth: 5
LineGap: 90
VLineGap: 0
OS2TypoAscent: 0
OS2TypoAOffset: 1
OS2TypoDescent: 0
OS2TypoDOffset: 1
OS2TypoLinegap: 90
OS2WinAscent: 0
OS2WinAOffset: 1
OS2WinDescent: 0
OS2WinDOffset: 1
HheadAscent: 0
HheadAOffset: 1
HheadDescent: 0
HheadDOffset: 1
OS2CapHeight: 750
OS2XHeight: 500
OS2Vendor: 'PfEd'
MarkAttachClasses: 1
DEI: 91125
LangName: 1033
Encoding: ISO8859-1
UnicodeInterp: none
NameList: AGL For New Fonts
DisplaySize: -48
AntiAlias: 1
FitToEm: 0
WinInfo: 0 30 12
BeginPrivate: 1
BlueValues 22 [-2 0 500 502 750 752]
EndPrivate
TeXData: 1 0 0 419430 209715 139810 0 1048576 139810 783286 444596 497025 792723 393216 433062 380633 303038 157286 324010 404750 52429 2506097 1059062 262144
BeginChars: 256 95

StartChar: X
Encoding: 88 88 0
Width: 590
Flags: MW
LayerCount: 2
Fore
SplineSet
30 750 m 1
 60.046875 750 l 1
 295.0234375 397.53515625 l 1
 530 750 l 1
 560.046875 750 l 1
 310.046875 375 l 1
 560.046875 0 l 1
 530 0 l 1
 295.0234375 352.46484375 l 1
 60.046875 0 l 1
 30 0 l 1
 280 375 l 1
 30 750 l 1
EndSplineSet
EndChar

StartChar: Q
Encoding: 81 81 1
Width: 819
Flags: MW
LayerCount: 2
Fore
SplineSet
407 752 m 2
 408 752 l 2
 616.063476562 752 784 583.063476562 784 375 c 2
 784 374 l 2
 784 274.4609375 745.33203125 184.877929688 682.21484375 117.462890625 c 1
 799.677734375 0 l 1
 764.322265625 0 l 1
 664.537109375 99.78515625 l 1
 597.122070312 36.66796875 507.5390625 -2 408 -2 c 2
 407 -2 l 2
 198.936523438 -2 30 165.936523438 30 374 c 2
 30 375 l 2
 30 583.063476562 198.936523438 752 407 752 c 2
407 728 m 2
 212.447265625 728 55 569.552734375 55 375 c 2
 55 374 l 2
 55 179.447265625 212.447265625 22 407 22 c 2
 408 22 l 2
 500.91015625 22 584.357421875 58.138671875 647.236328125 117.0859375 c 1
 529.673828125 234.6484375 l 1
 565.029296875 234.6484375 l 1
 664.86328125 134.814453125 l 1
 723.287109375 197.876953125 759 281.34375 759 374 c 2
 759 375 l 2
 759 569.552734375 602.552734375 728 408 728 c 2
 407 728 l 2
EndSplineSet
EndChar

StartChar: e
Encoding: 101 101 3
Width: 584
Flags: MW
LayerCount: 2
Fore
SplineSet
292 502 m 2
 292.504882812 501.999023438 l 2
 431.301757812 501.86328125 544 388.859375 544 250 c 2
 544 238 l 1
 65.314453125 238 l 1
 65.318359375 237.921875 l 2
 71.5595703125 117.974609375 170.534179688 22 292 22 c 2
 317 22 l 2
 379.68359375 22 436.37109375 47.5625 477.419921875 88.787109375 c 1
 494.734375 71.47265625 l 1
 449.14453125 26.083984375 386.3125 -2 317 -2 c 2
 292 -2 l 2
 152.97265625 -2 39.9208984375 110.97265625 40 250 c 2
 40.0009765625 251 l 2
 40.080078125 389.780273438 153.15234375 502.13671875 292 502 c 2
292 478 m 2
 170.524414062 478.080078125 71.55078125 382.008789062 65.3173828125 262.047851562 c 2
 65.314453125 262 l 1
 518.685546875 262 l 1
 518.682617188 262.0625 l 2
 512.900390625 381.9375 413.63671875 477.918945312 292.305664062 478 c 2
 292 478 l 2
EndSplineSet
EndChar

StartChar: exclam
Encoding: 33 33 4
Width: 150
Flags: MW
LayerCount: 2
Fore
SplineSet
62.5 175 m 1
 62.5 750 l 1
 87.5 750 l 1
 87.5 175 l 1
 62.5 175 l 1
50 23 m 0
 50 36.806640625 61.193359375 48 75 48 c 0
 88.806640625 48 100 36.806640625 100 23 c 0
 100 9.193359375 88.806640625 -2 75 -2 c 0
 61.193359375 -2 50 9.193359375 50 23 c 0
EndSplineSet
EndChar

StartChar: quotedbl
Encoding: 34 34 5
Width: 200
Flags: MW
LayerCount: 2
Fore
SplineSet
37.5 550 m 1
 37.5 750 l 5
 62.5 750 l 5
 62.5 550 l 1
 37.5 550 l 1
137.5 550 m 1
 137.5 750 l 5
 162.5 750 l 5
 162.5 550 l 1
 137.5 550 l 1
EndSplineSet
EndChar

StartChar: numbersign
Encoding: 35 35 6
Width: 677
Flags: MW
LayerCount: 2
Fore
SplineSet
325.666015625 750 m 1
 352.01953125 750 l 1
 272.6875 512 l 1
 496.333984375 512 l 1
 575.666015625 750 l 1
 602.01953125 750 l 1
 522.6875 512 l 1
 647.6875 512 l 1
 639.6875 488 l 1
 514.6875 488 l 1
 439.353515625 262 l 1
 564.35546875 262 l 1
 556.35546875 238 l 1
 431.353515625 238 l 1
 352.021484375 0 l 1
 325.66796875 0 l 1
 405 238 l 1
 181.353515625 238 l 1
 102.021484375 0 l 1
 75.66796875 0 l 1
 155 238 l 1
 30 238 l 1
 38 262 l 1
 163 262 l 1
 238.333984375 488 l 1
 113.33203125 488 l 1
 121.33203125 512 l 1
 246.333984375 512 l 1
 325.666015625 750 l 1
264.6875 488 m 1
 189.353515625 262 l 1
 413 262 l 1
 488.333984375 488 l 1
 264.6875 488 l 1
EndSplineSet
EndChar

StartChar: zero
Encoding: 48 48 7
Width: 604
Flags: HMW
LayerCount: 2
Fore
SplineSet
302 752 m 0
 441.02734375 752 554 639.02734375 554 500 c 2
 554 250 l 2
 554 110.97265625 441.02734375 -2 302 -2 c 0
 162.97265625 -2 50 110.97265625 50 250 c 2
 50 500 l 2
 50 639.02734375 162.97265625 752 302 752 c 0
302 728 m 0
 176.483398438 728 75 625.516601562 75 500 c 2
 75 250 l 2
 75 124.483398438 176.483398438 22 302 22 c 0
 427.516601562 22 529 124.483398438 529 250 c 2
 529 500 l 2
 529 625.516601562 427.516601562 728 302 728 c 0
EndSplineSet
EndChar

StartChar: one
Encoding: 49 49 8
Width: 125
Flags: HMW
LayerCount: 2
Fore
SplineSet
50 750 m 1
 75 750 l 1
 75 0 l 1
 50 0 l 1
 50 725.899414062 l 1
 50 726 l 1
 50 750 l 1
EndSplineSet
EndChar

StartChar: two
Encoding: 50 50 9
Width: 584
Flags: HMW
LayerCount: 2
Fore
SplineSet
292 752 m 2
 292.125 752 l 2
 431.095703125 751.965820312 544 638.986328125 544 500 c 0
 544 430.486328125 515.755859375 367.486328125 470.134765625 321.865234375 c 1
 111.724609375 24 l 1
 544 24 l 1
 544 0 l 1
 42.275390625 0 l 1
 452.814453125 339.185546875 l 1
 493.728515625 380.475585938 519 437.369140625 519 500 c 0
 519 625.494140625 417.552734375 727.981445312 292.06640625 728 c 2
 292 728 l 2
 166.483398438 728.018554688 65 625.516601562 65 500 c 1
 40 500 l 1
 40 639.02734375 152.97265625 752.034179688 292 752 c 2
EndSplineSet
EndChar

StartChar: three
Encoding: 51 51 10
Width: 584
Flags: HMW
LayerCount: 2
Fore
SplineSet
229.75 752.498046875 m 2
 344.444335938 752.499023438 l 2
 451.82421875 752.5 539.129882812 665.13671875 539.129882812 557.749023438 c 2
 539.129882812 557.659179688 l 2
 539.129882812 474.1953125 486.313476562 402.873046875 412.374023438 375.247070312 c 1
 486.323242188 347.6171875 539.129882812 276.279296875 539.129882812 192.799804688 c 2
 539.129882812 192.75 l 2
 539.129882812 85.359375 451.818359375 -2 344.43359375 -2 c 2
 229.75 -2 l 2
 122.340820312 -2 35 85.3408203125 35 192.75 c 1
 60 192.75 l 1
 60 98.8515625 135.8515625 22 229.75 22 c 2
 344.448242188 22 l 2
 438.315429688 22 514.129882812 98.875 514.129882812 192.75 c 2
 514.129882812 192.809570312 l 2
 514.129882812 283.508789062 443.29296875 358.282226562 353.827148438 363.23046875 c 1
 179.75 363.498046875 l 1
 179.75 387.498046875 l 1
 353.827148438 387.265625 l 1
 443.283203125 392.213867188 514.129882812 466.970703125 514.129882812 557.658203125 c 2
 514.129882812 557.748046875 l 2
 514.129882812 651.62109375 438.319335938 728.498046875 344.455078125 728.498046875 c 2
 229.75 728.498046875 l 2
 135.8515625 728.498046875 60 651.646484375 60 557.748046875 c 1
 35 557.748046875 l 1
 35 665.157226562 122.340820312 752.497070312 229.75 752.498046875 c 2
EndSplineSet
EndChar

StartChar: four
Encoding: 52 52 11
Width: 590
Flags: HMW
LayerCount: 2
Fore
SplineSet
66.5390625 750 m 1
 91.626953125 750 l 1
 65.666015625 465.251953125 l 2
 65.234375 460.22265625 65 455.137695312 65 450 c 0
 65 353.202148438 143.202148438 274 240 274 c 2
 515 274 l 1
 515 750 l 1
 540 750 l 1
 540 0 l 1
 515 0 l 1
 515 250 l 1
 240 250 l 2
 129.69140625 250 40 339.69140625 40 450 c 0
 40 455.873046875 40.26953125 461.68359375 40.767578125 467.4296875 c 2
 66.5390625 750 l 1
EndSplineSet
EndChar

StartChar: five
Encoding: 53 53 12
Width: 591
Flags: HMW
LayerCount: 2
Fore
SplineSet
70 750 m 1
 500 750 l 1
 500 726 l 1
 93 726 l 1
 75 450.017578125 l 1
 117.46875 482.60546875 170.571289062 502 228.15625 502 c 2
 300.01953125 502 l 2
 439.029296875 502 551.98046875 389.014648438 551.98046875 250 c 2
 551.98046875 249.892578125 l 2
 551.98046875 110.930664062 438.997070312 -2 300.02734375 -2 c 2
 228.15625 -2 l 2
 158.642578125 -2 95.642578125 26.244140625 50.021484375 71.865234375 c 1
 67.341796875 89.185546875 l 1
 108.421875 47.7275390625 165.270507812 22 228.15625 22 c 2
 300.044921875 22 l 2
 425.510742188 22 526.98046875 124.469726562 526.98046875 249.935546875 c 2
 526.98046875 250 l 2
 526.98046875 375.495117188 425.532226562 478 300.044921875 478 c 2
 228.15625 478 l 2
 169.092773438 478 115.35546875 455.301757812 75.005859375 418.193359375 c 1
 50 418.193359375 l 1
 70 750 l 1
EndSplineSet
EndChar

StartChar: six
Encoding: 54 54 13
Width: 584
Flags: HMW
LayerCount: 2
Fore
SplineSet
384.4921875 752.158203125 m 1
 403.513671875 736.197265625 l 1
 187 479 l 1
 218.750976562 493.453125 254.87890625 502.012695312 292 502 c 2
 292.170898438 502 l 2
 431.120117188 501.954101562 544.033203125 388.970703125 544 250 c 2
 544 249.876953125 l 2
 543.966796875 110.953125 431.063476562 -1.9619140625 292.140625 -2 c 2
 292 -2 l 2
 153.002929688 -2.0380859375 40.0244140625 110.922851562 40 249.909179688 c 2
 40 250 l 2
 39.9892578125 311.280273438 61.9560546875 367.490234375 98.41015625 411.203125 c 2
 384.4921875 752.158203125 l 1
292 478 m 2
 166.483398438 478.041992188 64.9716796875 375.516601562 65 250 c 2
 65 249.893554688 l 2
 65.0283203125 124.42578125 166.518554688 21.9794921875 292 22 c 2
 292.07421875 22 l 2
 417.517578125 22.0205078125 518.96875 124.444335938 519 249.8828125 c 2
 519 250 l 2
 519.03125 375.46484375 417.600585938 477.958007812 292.15625 478 c 2
 292 478 l 2
EndSplineSet
EndChar

StartChar: nine
Encoding: 57 57 14
Width: 584
Flags: HMW
LayerCount: 2
Fore
SplineSet
199.5078125 -2.1572265625 m 1
 180.486328125 13.8037109375 l 1
 397 271.000976562 l 1
 365.25 256.547851562 329.12109375 247.98828125 292 248.000976562 c 2
 291.830078125 248.000976562 l 2
 152.880859375 248.046875 39.966796875 361.030273438 40 500.000976562 c 2
 40 500.124023438 l 2
 40 639.047851562 152.9375 752.000976562 291.859375 752.000976562 c 2
 292 752.000976562 l 2
 430.998046875 752.000976562 543.9765625 639.078125 544 500.091796875 c 2
 544 500.000976562 l 2
 544.01171875 438.720703125 522.044921875 382.510742188 485.58984375 338.797851562 c 2
 199.5078125 -2.1572265625 l 1
292 272.000976562 m 2
 417.517578125 271.958984375 519.029296875 374.484375 519 500.000976562 c 2
 519 500.107421875 l 2
 518.97265625 625.575195312 417.482421875 728.021484375 292 728.000976562 c 2
 291.92578125 728.000976562 l 2
 166.482421875 727.98046875 65.03125 625.556640625 65 500.118164062 c 2
 65 500.000976562 l 2
 64.96875 374.536132812 166.400390625 272.04296875 291.84375 272.000976562 c 2
 292 272.000976562 l 2
EndSplineSet
EndChar

StartChar: seven
Encoding: 55 55 15
Width: 564
Flags: HMW
LayerCount: 2
Fore
SplineSet
30 750.0078125 m 1
 534 750.0078125 l 1
 60.060546875 -2.3515625 l 1
 40.376953125 11.4296875 l 1
 490.515625 726.0078125 l 1
 30 726.0078125 l 1
 30 750.0078125 l 1
EndSplineSet
EndChar

StartChar: eight
Encoding: 56 56 16
Width: 594
Flags: HMW
LayerCount: 2
Fore
SplineSet
239.75 752 m 2
 354.25 752 l 2
 461.807617188 752 549 664.807617188 549 557.25 c 2
 549 557.0859375 l 2
 548.965820312 476.075195312 497.717773438 403.559570312 421.896484375 375 c 1
 497.768554688 346.421875 549 273.827148438 549 192.75 c 2
 549 192.568359375 l 2
 548.951171875 85.0947265625 461.747070312 -2 354.25 -2 c 2
 239.75 -2 l 2
 132.248046875 -2 45.044921875 85.1025390625 45 192.583984375 c 2
 45 192.75 l 2
 45 273.827148438 96.2314453125 346.421875 172.103515625 375 c 1
 96.279296875 403.560546875 45.0322265625 476.081054688 45 557.095703125 c 2
 45 557.25 l 2
 45 664.807617188 132.192382812 752 239.75 752 c 2
239.333984375 728 m 2
 145.74609375 728 70 650.837890625 70 557.25 c 2
 70 557.146484375 l 2
 70.0283203125 463.443359375 146.034179688 387 239.75 387 c 2
 354.25 387 l 2
 447.961914062 387 523.96875 463.436523438 524 557.133789062 c 2
 524 557.25 l 2
 524 650.837890625 448.25390625 728 354.666015625 728 c 2
 239.333984375 728 l 2
239.333984375 363 m 2
 145.74609375 363 70 286.337890625 70 192.75 c 2
 70 192.609375 l 2
 70.0380859375 98.9228515625 146.046875 22 239.75 22 c 2
 354.25 22 l 2
 447.952148438 22 523.9609375 98.919921875 524 192.604492188 c 2
 524 192.75 l 2
 524 286.337890625 448.25390625 363 354.666015625 363 c 2
 239.333984375 363 l 2
EndSplineSet
EndChar

StartChar: R
Encoding: 82 82 17
Width: 534
Flags: HMW
LayerCount: 2
Fore
SplineSet
50 750 m 5
 300 750 l 6
 407.418945312 750 494.51953125 662.918945312 494.5 555.5 c 6
 494.5 555.426757812 l 6
 494.48046875 448.041992188 407.39453125 363 300 363 c 6
 284.921875 363 l 5
 494.5 0 l 5
 466.787109375 0 l 5
 257.20703125 363 l 5
 75 363 l 5
 75 0 l 5
 50 0 l 5
 50 750 l 5
75 726 m 5
 75 387 l 5
 300 387 l 6
 393.577148438 387 469.471679688 461.831054688 469.5 555.39453125 c 6
 469.5 555.5 l 6
 469.528320312 649.112304688 393.612304688 726 300 726 c 6
 75 726 l 5
EndSplineSet
EndChar

StartChar: o
Encoding: 111 111 18
Width: 584
Flags: HMW
LayerCount: 2
Fore
SplineSet
291.801757812 502 m 2
 292 502 l 2
 431.17578125 502.053710938 544.021484375 389.17578125 544 250 c 2
 544 249.920898438 l 2
 543.978515625 110.814453125 431.203125 -1.9736328125 292.098632812 -2 c 2
 292 -2 l 2
 152.854492188 -2.0263671875 40.025390625 110.774414062 40 249.908203125 c 2
 40 250 l 2
 39.9755859375 389.109375 152.716796875 501.946289062 291.801757812 502 c 2
291.439453125 478 m 2
 166.290039062 477.69140625 65 375.150390625 65 250 c 2
 65 249.888671875 l 2
 65.0302734375 124.5703125 166.668945312 21.9755859375 292 22 c 2
 292.090820312 22 l 2
 417.385742188 22.0244140625 518.973632812 124.609375 519 249.903320312 c 2
 519 250 l 2
 519.026367188 375.368164062 417.368164062 478 292 478 c 2
 291.439453125 478 l 2
EndSplineSet
EndChar

StartChar: l
Encoding: 108 108 19
Width: 125
Flags: HMW
LayerCount: 2
Fore
SplineSet
50 750 m 1
 75 750 l 1
 75 24.0703125 l 1
 75 23.990234375 l 1
 75 0 l 1
 50 0 l 1
 50 23.99609375 l 1
 50 24.0556640625 l 1
 50 725.815429688 l 1
 50 726 l 1
 50 750 l 1
EndSplineSet
EndChar

StartChar: a
Encoding: 97 97 20
Width: 594
Flags: HMW
LayerCount: 2
Fore
SplineSet
291.80078125 502.080078125 m 6
 292 502.080078125 l 6
 391.904296875 502.118164062 478.23828125 442.963867188 519 358.6640625 c 5
 519 500 l 5
 544 500 l 5
 544 0 l 5
 519 0 l 5
 519 141.498046875 l 5
 478.251953125 57.232421875 391.9609375 -1.900390625 292.099609375 -1.919921875 c 6
 292 -1.919921875 l 6
 152.853515625 -1.9462890625 40.025390625 110.852539062 40 249.986328125 c 6
 40 250.080078125 l 6
 39.974609375 389.189453125 152.71484375 502.026367188 291.80078125 502.080078125 c 6
291.439453125 478.080078125 m 6
 166.2890625 477.771484375 65 375.23046875 65 250.080078125 c 6
 65 249.96875 l 6
 65.029296875 124.650390625 166.66796875 22.0556640625 292 22.080078125 c 6
 292.08984375 22.080078125 l 6
 417.384765625 22.1044921875 518.97265625 124.6875 519 249.982421875 c 6
 519 250.080078125 l 6
 519.025390625 375.448242188 417.3671875 478.080078125 292 478.080078125 c 6
 291.439453125 478.080078125 l 6
EndSplineSet
EndChar

StartChar: n
Encoding: 110 110 21
Width: 566
Flags: HMW
LayerCount: 2
Fore
SplineSet
283.047851562 502 m 6
 283.269335937 502 l 6
 411.929736329 501.968408203 516.220751953 397.581152344 516.2 268.9 c 6
 516.2 0 l 5
 491.2 0 l 5
 491.2 268.9 l 6
 491.2 383.644873047 398.320507813 477.747363281 283.576464844 478 c 6
 283.06484375 478 l 6
 168.150976563 477.990332031 74.9775878906 383.818261718 75 268.9 c 6
 75 -0.06806640625 l 5
 50 -0.06806640625 l 5
 50 499.931933594 l 5
 75 499.931933594 l 5
 75 372.352050781 l 5
 113.083300782 448.608984374 191.949902344 502.024023438 283.047851562 502 c 6
EndSplineSet
EndChar

StartChar: r
Encoding: 114 114 22
Width: 332
Flags: HMW
LayerCount: 2
Fore
SplineSet
50 500 m 1
 75 500 l 1
 75 358.6640625 l 1
 115.706054688 442.849609375 201.862304688 501.99609375 301.595703125 502.080078125 c 2
 301.783203125 502.080078125 l 2
 301.85546875 502.080078125 301.927734375 502.080078125 302 502.080078125 c 2
 302 478.080078125 l 1
 301.951171875 478.080078125 301.903320312 478.080078125 301.854492188 478.080078125 c 2
 301.698242188 478.080078125 l 2
 176.467773438 477.958007812 74.9736328125 375.34765625 75 250.080078125 c 2
 75 0 l 1
 50 0 l 1
 50 500 l 1
EndSplineSet
EndChar

StartChar: d
Encoding: 100 100 23
Width: 594
Flags: HMW
LayerCount: 2
Fore
SplineSet
291.80078125 502 m 2
 292 502 l 2
 391.904296875 502.038085938 478.239257812 442.883789062 519 358.583984375 c 1
 519 750 l 1
 544 750 l 1
 544 0 l 1
 519 0 l 1
 519 141.41796875 l 1
 478.251953125 57.15234375 391.961914062 -1.98046875 292.099609375 -2 c 2
 292 -2 l 2
 152.854492188 -2.0263671875 40.025390625 110.772460938 40 249.90625 c 2
 40 250 l 2
 39.9755859375 389.109375 152.715820312 501.946289062 291.80078125 502 c 2
291.439453125 478 m 2
 166.290039062 477.69140625 65 375.150390625 65 250 c 2
 65 249.888671875 l 2
 65.0302734375 124.5703125 166.668945312 21.9755859375 292 22 c 2
 292.08984375 22 l 2
 417.384765625 22.0244140625 518.973632812 124.607421875 519 249.90234375 c 2
 519 250 l 2
 519.026367188 375.368164062 417.368164062 478 292 478 c 2
 291.439453125 478 l 2
EndSplineSet
EndChar

StartChar: B
Encoding: 66 66 24
Width: 539
Flags: HMW
LayerCount: 2
Fore
SplineSet
50 750 m 5
 300 750 l 6
 407.418945312 750 494.51953125 662.918945312 494.5 555.5 c 6
 494.5 555.42578125 l 6
 494.484375 471.985351562 440.895507812 402.045898438 367.064453125 375 c 5
 440.895507812 347.954101562 494.484375 278.014648438 494.5 194.57421875 c 6
 494.5 194.5 l 6
 494.51953125 87.0810546875 407.418945312 0 300 0 c 6
 50 0 l 5
 50 750 l 5
75 726 m 5
 75 387 l 5
 300 387 l 6
 393.577148438 387 469.471679688 461.831054688 469.5 555.39453125 c 6
 469.5 555.5 l 6
 469.528320312 649.112304688 393.612304688 726 300 726 c 6
 75 726 l 5
75 363 m 5
 75 24 l 5
 300 24 l 6
 393.612304688 24 469.528320312 100.887695312 469.5 194.5 c 6
 469.5 194.60546875 l 6
 469.471679688 288.168945312 393.577148438 363 300 363 c 6
 75 363 l 5
EndSplineSet
EndChar

StartChar: b
Encoding: 98 98 25
Width: 594
Flags: HMW
LayerCount: 2
Fore
SplineSet
302.200195312 502 m 6
 441.284179688 501.946289062 554.025390625 389.109375 554 250 c 6
 554 249.90625 l 6
 553.975585938 110.772460938 441.145507812 -2.0263671875 302 -2 c 6
 301.900390625 -2 l 6
 202.038085938 -1.98046875 115.748046875 57.15234375 75 141.41796875 c 5
 75 0 l 5
 50 0 l 5
 50 750 l 5
 75 750 l 5
 75 358.583984375 l 5
 115.76171875 442.883789062 202.095703125 502.038085938 302 502 c 6
 302.200195312 502 l 6
302.560546875 478 m 6
 302 478 l 6
 176.631835938 478 74.974609375 375.368164062 75 250 c 6
 75 249.90234375 l 6
 75.0263671875 124.607421875 176.615234375 22.0244140625 301.91015625 22 c 6
 302.000976562 22 l 6
 427.33203125 21.9755859375 528.970703125 124.5703125 529 249.888671875 c 6
 529 250 l 6
 529.000976562 375.150390625 427.7109375 477.69140625 302.560546875 478 c 6
EndSplineSet
EndChar

StartChar: c
Encoding: 99 99 26
Width: 500
Flags: HMW
LayerCount: 2
Fore
SplineSet
291.802734375 502 m 2
 292 502 l 2
 361.616210938 502.026367188 424.643554688 473.796875 470.25390625 428.154296875 c 1
 452.814453125 410.71484375 l 1
 411.708984375 452.216796875 354.833984375 478 292 478 c 2
 291.439453125 478 l 2
 166.290039062 477.69140625 65 375.150390625 65 250 c 2
 65 249.888671875 l 2
 65.0302734375 124.5703125 166.668945312 21.9755859375 292 22 c 2
 292.091796875 22 l 2
 354.892578125 22.0126953125 411.732421875 47.79296875 452.818359375 89.28125 c 1
 470.25 71.849609375 l 1
 424.662109375 26.234375 361.674804688 -1.986328125 292.099609375 -2 c 2
 292 -2 l 2
 152.854492188 -2.0263671875 40.025390625 110.774414062 40 249.908203125 c 2
 40 250 l 2
 39.9755859375 389.109375 152.717773438 501.946289062 291.802734375 502 c 2
EndSplineSet
EndChar

StartChar: f
Encoding: 102 102 27
Width: 236
Flags: HMW
LayerCount: 2
Fore
SplineSet
205.91015625 752 m 2
 206 752 l 1
 206 728 l 1
 205.88671875 728 l 2
 150.158203125 727.96875 105 681.743164062 105 626 c 2
 105 500 l 1
 205 500 l 1
 205 476 l 1
 105 476 l 1
 105 0 l 1
 80 0 l 1
 80 476 l 1
 30 476 l 1
 30 500 l 1
 80 500 l 1
 80 626 l 2
 80 695.557617188 136.36328125 751.975585938 205.91015625 752 c 2
EndSplineSet
EndChar

StartChar: g
Encoding: 103 103 28
Width: 594
Flags: HMW
LayerCount: 2
Fore
SplineSet
292 502 m 2
 292.099609375 502 l 2
 391.961914062 501.98046875 478.251953125 442.846679688 519 358.58203125 c 1
 519 500 l 1
 544 500 l 1
 544 -50 l 2
 544 -132.842773438 476.842773438 -200 394 -200 c 2
 215 -200 l 2
 132.157226562 -200 65 -132.842773438 65 -50 c 1
 90 -50 l 1
 90 -119.03515625 145.96484375 -176 215 -176 c 2
 394 -176 l 2
 463.03515625 -176 519 -119.03515625 519 -50 c 2
 519 141.416015625 l 1
 478.23828125 57.1162109375 391.904296875 -2.0380859375 292 -2 c 2
 291.80078125 -2 l 2
 152.715820312 -1.9462890625 39.9755859375 110.890625 40 250 c 2
 40 250.09375 l 2
 40.025390625 389.227539062 152.85546875 502.026367188 292 502 c 2
292 478 m 2
 166.668945312 478.024414062 65.0302734375 375.4296875 65 250.111328125 c 2
 65 250 l 2
 65 124.849609375 166.290039062 22.30859375 291.439453125 22 c 2
 292 22 l 2
 417.368164062 22 519.026367188 124.631835938 519 250 c 2
 519 250.09765625 l 2
 518.973632812 375.392578125 417.384765625 477.975585938 292.08984375 478 c 2
 292 478 l 2
EndSplineSet
EndChar

StartChar: h
Encoding: 104 104 29
Width: 566
Flags: HMW
LayerCount: 2
Fore
SplineSet
283.047851562 502 m 6
 283.269335937 502 l 6
 411.929736329 501.968408203 516.220751953 397.581152344 516.2 268.9 c 6
 516.2 0 l 5
 491.2 0 l 5
 491.2 268.9 l 6
 491.2 383.644873047 398.320654297 477.747363281 283.576464844 478 c 6
 283.06484375 478 l 6
 168.151123047 477.990332031 74.9775878906 383.818261718 75 268.9 c 6
 75 -0.06806640625 l 5
 50 -0.06806640625 l 5
 50 749.931933594 l 5
 75 749.931933594 l 5
 75 372.352050781 l 5
 113.083447266 448.608984374 191.949902344 502.024023438 283.047851562 502 c 6
EndSplineSet
EndChar

StartChar: i
Encoding: 105 105 30
Width: 150
Flags: HMW
LayerCount: 2
Fore
SplineSet
62.5 500 m 1
 87.5 500 l 1
 87.5 24.0947265625 l 1
 87.5 23.986328125 l 1
 87.5 0 l 1
 62.5 0 l 1
 62.5 24.0029296875 l 1
 62.5 24.095703125 l 1
 62.5 475.334960938 l 1
 62.5 475.998046875 l 1
 62.5 500 l 1
100 625 m 0
 100 638.797851562 88.7978515625 650 75 650 c 0
 61.2021484375 650 50 638.797851562 50 625 c 0
 50 611.202148438 61.2021484375 600 75 600 c 0
 88.7978515625 600 100 611.202148438 100 625 c 0
EndSplineSet
EndChar

StartChar: j
Encoding: 106 106 31
Width: 262
Flags: HMW
LayerCount: 2
Fore
SplineSet
175 500 m 1
 200 500 l 1
 200 -50 l 2
 200 -132.815429688 132.88671875 -199.978515625 50.0810546875 -200 c 2
 50 -200 l 1
 50 -176 l 1
 50.0712890625 -176 l 2
 119.07421875 -175.98046875 175 -119.01171875 175 -50 c 2
 175 475.333984375 l 1
 175 475.998046875 l 1
 175 500 l 1
212.5 625 m 0
 212.5 638.797851562 201.297851562 650 187.5 650 c 0
 173.702148438 650 162.5 638.797851562 162.5 625 c 0
 162.5 611.202148438 173.702148438 600 187.5 600 c 0
 201.297851562 600 212.5 611.202148438 212.5 625 c 0
EndSplineSet
EndChar

StartChar: k
Encoding: 107 107 32
Width: 455
Flags: HMW
LayerCount: 2
Fore
SplineSet
50 750 m 1
 75 750 l 1
 75 221.35546875 l 1
 387.64453125 500 l 1
 425 500 l 1
 179 280 l 1
 425 0 l 1
 391.64453125 0 l 1
 160.12109375 263.122070312 l 1
 75 187 l 1
 75 0 l 1
 50 0 l 1
 50 750 l 1
EndSplineSet
EndChar

StartChar: m
Encoding: 109 109 33
Width: 1007
Flags: HMW
LayerCount: 2
Fore
SplineSet
283.047851562 502.068066406 m 6
 283.269335937 502.068066406 l 6
 385.665722656 502.041650391 472.599804688 435.005908204 503.7 343.128125 c 5
 534.798535156 435.005908204 621.732617187 502.041650391 724.130664063 502.068066406 c 6
 724.573632813 502.068066406 l 6
 853.233203125 502.03647461 957.525878902 397.64921875 957.504296875 268.968066406 c 6
 957.504296875 0 l 5
 932.504296875 0 l 5
 932.504296875 268.968066406 l 6
 932.504296875 383.712939453 839.623974609 477.815429688 724.880761719 478.068066406 c 6
 723.750488281 478.06640625 l 6
 609.038818359 477.773925781 516.2 383.688037109 516.2 268.968066406 c 6
 516.2 0 l 5
 491.2 0 l 5
 491.2 268.968066406 l 6
 491.2 383.712939453 398.319677734 477.815429688 283.576464844 478.068066406 c 6
 283.06484375 478.068066406 l 6
 168.150146484 478.058398437 74.9767578125 383.886328125 75 268.968066406 c 6
 75 0 l 5
 50 0 l 5
 50 500 l 5
 75 500 l 5
 75 372.420117188 l 5
 113.082470703 448.677050782 191.949902344 502.092089843 283.047851562 502.068066406 c 6
EndSplineSet
EndChar

StartChar: p
Encoding: 112 112 34
Width: 594
Flags: HMW
LayerCount: 2
Fore
SplineSet
302.201171875 -2 m 2
 302 -2 l 2
 202.095703125 -2.0380859375 115.76171875 57.1162109375 75 141.416015625 c 1
 75 -200 l 1
 50 -200 l 1
 50 500 l 1
 75 500 l 1
 75 358.58203125 l 1
 115.748046875 442.84765625 202.0390625 501.981445312 301.900390625 502 c 2
 302 502 l 2
 441.146484375 502.026367188 553.9765625 389.227539062 554 250.09375 c 2
 554 250 l 2
 554.025390625 110.890625 441.28515625 -1.9462890625 302.201171875 -2 c 2
302.560546875 22 m 2
 427.7109375 22.30859375 529.001953125 124.849609375 529 250 c 2
 529 250.111328125 l 2
 528.970703125 375.4296875 427.33203125 478.025390625 302.001953125 478 c 2
 301.91015625 478 l 2
 176.615234375 477.975585938 75.02734375 375.392578125 75 250.09765625 c 2
 75 250 l 2
 74.974609375 124.631835938 176.6328125 22 302 22 c 2
 302.560546875 22 l 2
EndSplineSet
EndChar

StartChar: q
Encoding: 113 113 35
Width: 594
Flags: HMW
LayerCount: 2
Fore
SplineSet
291.80078125 -2 m 2
 152.71484375 -1.9462890625 39.974609375 110.890625 40 250 c 2
 40 250.09375 l 2
 40.025390625 389.227539062 152.85546875 502.026367188 292 502 c 2
 292.099609375 502 l 2
 391.9609375 501.981445312 478.251953125 442.84765625 519 358.58203125 c 1
 519 500 l 1
 544 500 l 1
 544 -200 l 1
 519 -200 l 1
 519 141.416015625 l 1
 478.23828125 57.1162109375 391.904296875 -2.0380859375 292 -2 c 2
 291.80078125 -2 l 2
291.439453125 22 m 2
 292 22 l 2
 417.3671875 22 519.025390625 124.631835938 519 250 c 2
 519 250.09765625 l 2
 518.97265625 375.392578125 417.384765625 477.975585938 292.08984375 478 c 2
 292 478 l 2
 166.66796875 478.025390625 65.029296875 375.4296875 65 250.111328125 c 2
 65 250 l 2
 65 124.849609375 166.2890625 22.30859375 291.439453125 22 c 2
EndSplineSet
EndChar

StartChar: s
Encoding: 115 115 36
Width: 349
Flags: HMW
LayerCount: 2
Fore
SplineSet
162 502 m 6
 202 502 l 6
 237.108398438 502 269.068359375 488.19921875 292.74609375 465.74609375 c 5
 275.443359375 448.443359375 l 5
 256.301757812 466.727539062 230.48046875 478 202 478 c 6
 162 478 l 6
 102.7578125 478 55 429.2421875 55 370 c 6
 55 369.79296875 l 6
 55 310.643554688 102.826171875 262 162 262 c 6
 187 262 l 6
 259.75390625 262 319 202.75390625 319 130 c 6
 319 129.779296875 l 6
 319 57.126953125 259.6796875 -2 187 -2 c 6
 137 -2 l 6
 101.891601562 -2 69.931640625 11.80078125 46.25390625 34.25390625 c 5
 63.556640625 51.556640625 l 5
 82.6982421875 33.2724609375 108.51953125 22 137 22 c 6
 187 22 l 6
 246.177734375 22 294 70.6513671875 294 129.806640625 c 6
 294 130 l 6
 294 189.2421875 246.2421875 238 187 238 c 6
 162 238 l 6
 89.32421875 238 30 297.120117188 30 369.766601562 c 6
 30 370 l 6
 30 442.75390625 89.24609375 502 162 502 c 6
EndSplineSet
EndChar

StartChar: t
Encoding: 116 116 37
Width: 235
Flags: HMW
LayerCount: 2
Fore
SplineSet
105 750 m 1
 130 750 l 1
 130 500 l 1
 206 500 l 1
 206 476 l 1
 130 476 l 1
 130 0 l 1
 105 0 l 1
 105 476 l 1
 29 476 l 1
 29 500 l 1
 105 500 l 1
 105 750 l 1
EndSplineSet
EndChar

StartChar: u
Encoding: 117 117 38
Width: 566
Flags: HMW
LayerCount: 2
Fore
SplineSet
50 500 m 5
 75 500 l 5
 75 231.1 l 6
 75 116.170019532 168.170019532 21.9486328125 283.1 22 c 6
 283.287792968 22 l 6
 398.131884766 22.0515136719 491.2 116.232519531 491.2 231.1 c 6
 491.2 500 l 5
 516.2 500 l 5
 516.2 231.1 l 6
 516.2 102.437109375 411.958496094 -1.93989257813 283.3234375 -2 c 6
 283.1 -2 l 6
 154.362402344 -2.06010742188 50 102.362402344 50 231.1 c 6
 50 500 l 5
EndSplineSet
EndChar

StartChar: v
Encoding: 118 118 39
Width: 551
Flags: HMW
LayerCount: 2
Fore
SplineSet
30 500 m 5
 57.6350585938 500 l 5
 275.968359375 31.1548828125 l 5
 494.301660156 500 l 5
 521.93671875 500 l 5
 276.072851562 -30.9147460938 l 5
 275.968359375 -31.1565429687 l 5
 30 500 l 5
EndSplineSet
EndChar

StartChar: w
Encoding: 119 119 40
Width: 988
Flags: HMW
LayerCount: 2
Fore
SplineSet
30 500 m 1
 57.634765625 500 l 1
 275.96875 35.1552734375 l 1
 494.301757812 510 l 1
 494.361328125 509.869140625 l 1
 712.634765625 35.1552734375 l 1
 930.96875 500 l 1
 958.603515625 500 l 1
 712.739257812 -30.9150390625 l 1
 712.634765625 -31.15625 l 1
 494.301757812 442.686523438 l 1
 276.073242188 -30.9150390625 l 1
 275.96875 -31.15625 l 1
 30 500 l 1
EndSplineSet
EndChar

StartChar: x
Encoding: 120 120 41
Width: 486
Flags: HMW
LayerCount: 2
Fore
SplineSet
30 500 m 1
 61.25 500 l 1
 243.125 269.833984375 l 1
 425 500 l 1
 456.25 500 l 1
 258.75 250 l 1
 456.25 0 l 1
 425 0 l 1
 243.125 230.166015625 l 1
 61.25 0 l 1
 30 0 l 1
 227.5 250 l 1
 30 500 l 1
EndSplineSet
EndChar

StartChar: y
Encoding: 121 121 42
Width: 554
Flags: HMW
LayerCount: 2
Fore
SplineSet
30 500 m 5
 57.6240234375 500 l 5
 273.03125 36.291015625 l 5
 497.08203125 500 l 5
 524.8984375 500 l 5
 188.052734375 -200 l 5
 160.236328125 -200 l 5
 258.920898438 5.5908203125 l 5
 30 500 l 5
EndSplineSet
EndChar

StartChar: z
Encoding: 122 122 43
Width: 496
Flags: HMW
LayerCount: 2
Fore
SplineSet
48.29296875 500 m 5
 461.587890625 500 l 5
 86.58984375 25 l 5
 448.29296875 25 l 5
 448.29296875 0 l 5
 35 0 l 5
 409.998046875 475 l 5
 48.29296875 475 l 5
 48.29296875 500 l 5
EndSplineSet
EndChar

StartChar: O
Encoding: 79 79 44
Width: 814
Flags: HMW
LayerCount: 2
Fore
SplineSet
407 752 m 6
 407.206054688 752 l 6
 615.174804688 751.944335938 784.065429688 582.994140625 784 375 c 6
 784 374.758789062 l 6
 783.934570312 166.899414062 615.133789062 -1.9248046875 407.279296875 -2 c 6
 407 -2 l 6
 199.051757812 -2.0751953125 30.09375 166.75 30 374.655273438 c 6
 30 375 l 6
 29.9072265625 583.063476562 198.936523438 752.055664062 407 752 c 6
407 728 m 6
 212.448242188 728.052734375 54.9267578125 569.552734375 55 375 c 6
 55 374.727539062 l 6
 55.0732421875 180.299804688 212.538085938 21.9248046875 407 22 c 6
 407.276367188 22 l 6
 601.626953125 22.0751953125 758.939453125 180.418945312 759 374.77734375 c 6
 759 375 l 6
 759.060546875 569.48828125 601.65625 727.947265625 407.193359375 728 c 6
 407 728 l 6
EndSplineSet
EndChar

StartChar: C
Encoding: 67 67 45
Width: 703
Flags: HMW
LayerCount: 2
Fore
SplineSet
407 752 m 2
 407.20703125 752 l 2
 511.208007812 751.971679688 605.4375 709.70703125 673.650390625 641.443359375 c 1
 656.330078125 624.123046875 l 1
 592.65625 688.225585938 504.572265625 727.973632812 407.193359375 728 c 2
 407 728 l 2
 212.448242188 728.052734375 54.9267578125 569.552734375 55 375 c 2
 55 374.728515625 l 2
 55.0732421875 180.30078125 212.538085938 21.9248046875 407 22 c 2
 407.27734375 22 l 2
 504.624023438 22.037109375 592.677734375 61.7841796875 656.333984375 125.873046875 c 1
 673.65234375 108.5546875 l 1
 605.455078125 40.302734375 511.25390625 -1.9619140625 407.279296875 -2 c 2
 407 -2 l 2
 199.051757812 -2.0751953125 30.0927734375 166.750976562 30 374.65625 c 2
 30 375 l 2
 29.9072265625 583.063476562 198.936523438 752.055664062 407 752 c 2
EndSplineSet
EndChar

StartChar: D
Encoding: 68 68 46
Width: 642
Flags: HMW
LayerCount: 2
Fore
SplineSet
50 750 m 1
 237.5 750 l 2
 444.458984375 750 612.538085938 581.958984375 612.5 375 c 2
 612.5 374.860351562 l 2
 612.461914062 167.965820312 444.412109375 0 237.5 0 c 2
 50 0 l 1
 50 750 l 1
75 726 m 1
 75 24 l 1
 237.5 24 l 2
 430.897460938 24 587.459960938 181.470703125 587.5 374.849609375 c 2
 587.5 375 l 2
 587.540039062 568.447265625 430.947265625 726 237.5 726 c 2
 75 726 l 1
EndSplineSet
EndChar

StartChar: E
Encoding: 69 69 47
Width: 530
Flags: HMW
LayerCount: 2
Fore
SplineSet
50 750 m 5
 500 750 l 5
 500 725 l 5
 75 725 l 5
 75 387.5 l 5
 500 387.5 l 5
 500 362.5 l 5
 75 362.5 l 5
 75 25 l 5
 500 25 l 5
 500 0 l 5
 50 0 l 5
 50 750 l 5
EndSplineSet
EndChar

StartChar: F
Encoding: 70 70 48
Width: 530
Flags: HMW
LayerCount: 2
Fore
SplineSet
50 750 m 5
 500 750 l 5
 500 725 l 5
 75 725 l 5
 75 387.5 l 5
 500 387.5 l 5
 500 362.5 l 5
 75 362.5 l 5
 75 0 l 5
 50 0 l 5
 50 750 l 5
EndSplineSet
EndChar

StartChar: A
Encoding: 65 65 49
Width: 586
Flags: HMW
LayerCount: 2
Fore
SplineSet
293.17578125 752.529296875 m 1
 293.193359375 752.529296875 l 1
 556.3515625 0 l 1
 529.998046875 0 l 1
 429.83203125 288.5 l 1
 157.51953125 288.5 l 1
 56.353515625 0 l 1
 30 0 l 1
 293.17578125 752.529296875 l 1
293.17578125 678.46875 m 1
 165.51953125 312.5 l 1
 421.83203125 312.5 l 1
 293.17578125 678.46875 l 1
EndSplineSet
EndChar

StartChar: G
Encoding: 71 71 50
Width: 813
Flags: HMW
LayerCount: 2
Fore
SplineSet
406.90234375 752 m 6
 422 752 l 6
 526.03125 752 620.28125 709.765625 688.5234375 641.5234375 c 5
 671.205078125 624.205078125 l 5
 607.504882812 688.283203125 519.403320312 728 422 728 c 6
 406.90234375 728 l 6
 212.395507812 727.947265625 54.9716796875 569.51953125 55 375 c 6
 55 374.89453125 l 6
 55.0283203125 180.390625 212.483398438 21.970703125 407 22 c 6
 407.109375 22 l 6
 597.55859375 22.029296875 752.447265625 173.951171875 758.7890625 362.890625 c 6
 758.79296875 363 l 5
 407 363 l 5
 407 387 l 5
 783.8046875 387 l 5
 783.8046875 363 l 5
 777.458007812 160.51171875 611.099609375 -1.974609375 407.094726562 -2 c 6
 407 -2 l 6
 198.978515625 -2.025390625 30.0341796875 166.869140625 30 374.875 c 6
 30 375 l 6
 29.9658203125 583.030273438 198.883789062 751.947265625 406.90234375 752 c 6
EndSplineSet
EndChar

StartChar: H
Encoding: 72 72 51
Width: 612
Flags: HMW
LayerCount: 2
Fore
SplineSet
50 750 m 5
 75 750 l 5
 75 387 l 5
 537.5 387 l 5
 537.5 750 l 5
 562.5 750 l 5
 562.5 0 l 5
 537.5 0 l 5
 537.5 363 l 5
 75 363 l 5
 75 0 l 5
 50 0 l 5
 50 750 l 5
EndSplineSet
EndChar

StartChar: I
Encoding: 73 73 52
Width: 125
Flags: HMW
LayerCount: 2
Fore
SplineSet
50 750 m 5
 75 750 l 5
 75 725.995117188 l 5
 75 725.904296875 l 5
 75 24.125 l 5
 75 24.0029296875 l 5
 75 0 l 5
 50 0 l 5
 50 24 l 5
 50 24.0849609375 l 5
 50 725.887695312 l 5
 50 725.982421875 l 5
 50 750 l 5
EndSplineSet
EndChar

StartChar: L
Encoding: 76 76 53
Width: 530
Flags: HMW
LayerCount: 2
Fore
SplineSet
50 750 m 5
 75 750 l 5
 75 25 l 5
 500 25 l 5
 500 0 l 5
 50 0 l 5
 50 750 l 5
EndSplineSet
EndChar

StartChar: T
Encoding: 84 84 54
Width: 560
Flags: HMW
LayerCount: 2
Fore
SplineSet
30 750 m 1
 530 750 l 1
 530 726 l 1
 292.5 726 l 1
 292.5 0 l 1
 267.5 0 l 1
 267.5 726 l 1
 30 726 l 1
 30 750 l 1
EndSplineSet
EndChar

StartChar: Y
Encoding: 89 89 55
Width: 590
Flags: HMW
LayerCount: 2
Fore
SplineSet
30 750 m 5
 60.046875 750 l 5
 295.0234375 397.53515625 l 5
 530 750 l 5
 560.046875 750 l 5
 307.5234375 371.21484375 l 5
 307.5234375 0 l 5
 282.5234375 0 l 5
 282.5234375 371.21484375 l 5
 30 750 l 5
EndSplineSet
EndChar

StartChar: P
Encoding: 80 80 56
Width: 534
Flags: HMW
LayerCount: 2
Fore
SplineSet
50 750 m 1
 300 750 l 2
 407.418945312 750 494.51953125 662.918945312 494.5 555.5 c 2
 494.5 555.42578125 l 2
 494.48046875 448.041015625 407.39453125 363 300 363 c 2
 75 363 l 1
 75 0 l 1
 50 0 l 1
 50 750 l 1
75 726 m 1
 75 387 l 1
 300 387 l 2
 393.577148438 387 469.471679688 461.831054688 469.5 555.39453125 c 2
 469.5 555.5 l 2
 469.528320312 649.112304688 393.612304688 726 300 726 c 2
 75 726 l 1
EndSplineSet
EndChar

StartChar: Z
Encoding: 90 90 57
Width: 607
Flags: HMW
LayerCount: 2
Fore
SplineSet
40 750 m 5
 577.609375 750 l 5
 77.609375 25 l 5
 567.8046875 25 l 5
 567.8046875 0 l 5
 30 0 l 5
 530.001953125 725 l 5
 40 725 l 5
 40 750 l 5
EndSplineSet
EndChar

StartChar: J
Encoding: 74 74 58
Width: 378
Flags: HMW
LayerCount: 2
Fore
SplineSet
303.6875 750 m 5
 328.6875 750 l 5
 328.6875 173 l 6
 328.6875 76.54296875 250.26171875 -1.9638671875 153.821289062 -2 c 6
 153.6875 -2 l 6
 105.436523438 -2.0185546875 61.6875 17.625 30 49.3125 c 5
 47.3203125 66.6328125 l 5
 74.4658203125 39.109375 112.065429688 21.978515625 153.6875 22 c 6
 153.83984375 22 l 6
 236.759765625 22.0439453125 303.6875 90.0595703125 303.6875 173 c 6
 303.6875 750 l 5
EndSplineSet
EndChar

StartChar: K
Encoding: 75 75 59
Width: 580
Flags: HMW
LayerCount: 2
Fore
SplineSet
50 750 m 5
 75 750 l 5
 75 310.35546875 l 5
 514.64453125 750 l 5
 550 750 l 5
 175 375 l 5
 550 0 l 5
 514.64453125 0 l 5
 157.322265625 357.322265625 l 5
 75 275 l 5
 75 0 l 5
 50 0 l 5
 50 750 l 5
EndSplineSet
EndChar

StartChar: V
Encoding: 86 86 60
Width: 586
Flags: HMW
LayerCount: 2
Fore
SplineSet
30 750 m 1
 56.48828125 750 l 1
 293.244140625 73.822265625 l 1
 530 750 l 1
 556.48828125 750 l 1
 293 -2 l 1
 292 -2 l 1
 30 750 l 1
EndSplineSet
EndChar

StartChar: W
Encoding: 87 87 61
Width: 1060
Flags: HMW
LayerCount: 2
Fore
SplineSet
30 750 m 1
 56.48828125 750 l 1
 293.244140625 73.822265625 l 1
 529.900390625 752 l 1
 530.099609375 752 l 1
 766.755859375 73.822265625 l 1
 1003.51171875 750 l 1
 1030 750 l 1
 766.51171875 -2 l 1
 765.51171875 -2 l 1
 529.92578125 676.188476562 l 1
 293 -2 l 1
 292 -2 l 1
 30 750 l 1
EndSplineSet
EndChar

StartChar: M
Encoding: 77 77 62
Width: 875
Flags: HMW
LayerCount: 2
Fore
SplineSet
50 750 m 1
 76.568359375 750 l 1
 427.5 51.236328125 l 5
 778.431640625 750 l 1
 805 750 l 1
 805 0 l 1
 780 0 l 1
 780 698.5625 l 1
 427.599609375 -3 l 5
 427.400390625 -3 l 5
 75 698.5625 l 1
 75 0 l 1
 50 0 l 1
 50 750 l 1
EndSplineSet
EndChar

StartChar: N
Encoding: 78 78 63
Width: 625
Flags: HMW
LayerCount: 2
Fore
SplineSet
50 752 m 1
 50.103515625 752 l 1
 550 72.099609375 l 1
 550 750 l 1
 575 750 l 1
 575 -4 l 1
 574.7578125 -4 l 1
 75 675.900390625 l 1
 75 0 l 1
 50 0 l 1
 50 752 l 1
EndSplineSet
EndChar

StartChar: U
Encoding: 85 85 64
Width: 700
Flags: HMW
LayerCount: 2
Fore
SplineSet
50 750 m 1
 75 750 l 1
 75 298 l 2
 75 145.973632812 197.973632812 21.90234375 350 22 c 2
 350.361328125 22 l 2
 502.220703125 22.0986328125 625 146.09375 625 298 c 2
 625 750 l 1
 650 750 l 1
 650 298 l 2
 650 132.50390625 515.604492188 -1.9658203125 350.125 -2 c 2
 350 -2 l 2
 184.462890625 -2.0341796875 50 132.462890625 50 298 c 2
 50 750 l 1
EndSplineSet
EndChar

StartChar: S
Encoding: 83 83 65
Width: 499
Flags: HMW
LayerCount: 2
Fore
SplineSet
224.5 752 m 2
 295.5 752 l 6
 349.135742188 752 397.760742188 730.192382812 432.9765625 694.9765625 c 5
 415.65625 677.65625 l 5
 384.982421875 708.708007812 342.506835938 728 295.5 728 c 6
 224.5 728 l 2
 130.739257812 728 55 651.260742188 55 557.5 c 2
 55 557.315429688 l 2
 55 463.638671875 130.80078125 387 224.5 387 c 2
 284.5 387 l 2
 391.771484375 387 479 299.771484375 479 192.5 c 2
 479 192.341796875 l 2
 479 85.142578125 391.71875 -2 284.5 -2 c 2
 184.5 -2 l 2
 130.864257812 -2 82.2392578125 19.8076171875 47.0234375 55.0234375 c 1
 64.34375 72.34375 l 1
 95.017578125 41.2919921875 137.493164062 22 184.5 22 c 2
 284.5 22 l 2
 378.184570312 22 454 98.6162109375 454 192.2734375 c 2
 454 192.5 l 2
 454 286.260742188 378.260742188 363 284.5 363 c 2
 224.5 363 l 2
 117.267578125 363 30 450.165039062 30 557.383789062 c 2
 30 557.5 l 2
 30 664.771484375 117.228515625 752 224.5 752 c 2
EndSplineSet
EndChar

StartChar: dollar
Encoding: 36 36 66
Width: 499
Flags: HMW
LayerCount: 2
Fore
SplineSet
237 800 m 1
 262 800 l 1
 262 752 l 1
 309.5 752 l 2
 363.059570312 754.856445312 411.760742188 730.192382812 446.9765625 694.9765625 c 1
 429.65625 677.65625 l 1
 398.982421875 708.708007812 356.506835938 728 309.5 728 c 2
 262 728 l 1
 262 387 l 1
 274.5 387 l 2
 381.771484375 387 469 299.771484375 469 192.5 c 2
 469 192.341796875 l 2
 469 85.1435546875 381.71875 -2 274.5 -2 c 2
 262 -2 l 1
 262 -50 l 1
 237 -50 l 1
 237 -2 l 1
 179.5 -2 l 2
 125.912109375 0.2568359375 77.2392578125 19.8076171875 42.0234375 55.0234375 c 1
 59.34375 72.34375 l 1
 90.017578125 41.2919921875 132.493164062 22 179.5 22 c 2
 237 22 l 1
 237 363 l 1
 224.5 363 l 2
 117.267578125 363 30 450.165039062 30 557.3828125 c 2
 30 557.5 l 2
 30 664.771484375 117.228515625 752 224.5 752 c 2
 237 752 l 1
 237 800 l 1
237 728 m 1
 224.5 728 l 2
 130.739257812 728 55 651.260742188 55 557.5 c 2
 55 557.314453125 l 2
 55 463.637695312 130.80078125 387 224.5 387 c 2
 237 387 l 1
 237 728 l 1
262 363 m 1
 262 22 l 1
 274.5 22 l 2
 362.099609375 22 444 98.6162109375 444 192.2734375 c 2
 444 192.5 l 2
 444 286.260742188 368.260742188 363 274.5 363 c 2
 262 363 l 1
EndSplineSet
EndChar

StartChar: percent
Encoding: 37 37 67
Width: 760
Flags: HMW
LayerCount: 2
Fore
SplineSet
619.642578125 751.998046875 m 1
 640.357421875 738.001953125 l 1
 140.357421875 -1.998046875 l 1
 119.642578125 11.998046875 l 1
 619.642578125 751.998046875 l 1
240 752 m 0
 322.694335938 752 390 684.694335938 390 602 c 0
 390 519.305664062 322.694335938 452 240 452 c 0
 157.305664062 452 90 519.305664062 90 602 c 0
 90 684.694335938 157.305664062 752 240 752 c 0
240 728 m 0
 170.81640625 728 115 671.18359375 115 602 c 0
 115 532.81640625 170.81640625 476 240 476 c 0
 309.18359375 476 365 532.81640625 365 602 c 0
 365 671.18359375 309.18359375 728 240 728 c 0
520 298 m 0
 602.694335938 298 670 230.694335938 670 148 c 0
 670 65.3056640625 602.694335938 -2 520 -2 c 0
 437.305664062 -2 370 65.3056640625 370 148 c 0
 370 230.694335938 437.305664062 298 520 298 c 0
520 274 m 0
 450.81640625 274 395 217.18359375 395 148 c 0
 395 78.81640625 450.81640625 22 520 22 c 0
 589.18359375 22 645 78.81640625 645 148 c 0
 645 217.18359375 589.18359375 274 520 274 c 0
EndSplineSet
EndChar

StartChar: ampersand
Encoding: 38 38 68
Width: 607
Flags: HMW
LayerCount: 2
Fore
SplineSet
249.19921875 752 m 6
 249.370117188 752 l 6
 304.495117188 752 352.754882812 721.963867188 378.7734375 677.4765625 c 5
 357.33984375 665.103515625 l 5
 335.740234375 702.5703125 295.524414062 728 249.330078125 728 c 6
 249.19921875 728 l 6
 180.015625 728 124.19921875 671.18359375 124.19921875 602 c 6
 124.19921875 601.85546875 l 6
 124.19921875 570.420898438 135.794921875 541.55078125 154.890625 519.41015625 c 6
 478.044921875 134.32421875 l 5
 544.630859375 229.212890625 l 5
 564.994140625 214.953125 l 5
 494.671875 114.51171875 l 5
 577.2734375 16.0703125 l 5
 558.12109375 0 l 5
 479.53125 93.66015625 l 5
 433.3671875 35.4384765625 362.055664062 -2 282.102539062 -2 c 6
 282 -2 l 6
 143.014648438 -2 30 110.903320312 30 249.873046875 c 6
 30 250 l 6
 30 345.85546875 83.71484375 429.3046875 162.63671875 471.896484375 c 5
 136.072265625 503.62109375 l 6
 113.1484375 529.946289062 99.19921875 564.3125 99.19921875 601.861328125 c 6
 99.19921875 602 l 6
 99.19921875 684.694335938 166.504882812 752 249.19921875 752 c 6
178.52734375 452.919921875 m 5
 105.145507812 415.048828125 55 338.223632812 55 250 c 6
 55 249.887695312 l 6
 55 124.421875 156.520507812 22 282 22 c 6
 282.111328125 22 l 6
 356.23046875 22 421.95703125 57.8095703125 463.341796875 112.953125 c 5
 178.52734375 452.919921875 l 5
EndSplineSet
EndChar

StartChar: quotesingle
Encoding: 39 39 69
Width: 101
Flags: HMW
LayerCount: 2
Fore
SplineSet
38 550 m 5
 38 750 l 5
 63 750 l 5
 63 550 l 5
 38 550 l 5
EndSplineSet
EndChar

StartChar: parenleft
Encoding: 40 40 70
Width: 267
Flags: HMW
LayerCount: 2
Fore
SplineSet
220.380859375 800 m 1
 237.064453125 783.31640625 l 1
 228.76171875 774.975585938 220.71875 766.415039062 212.940429688 757.647460938 c 0
 111.482421875 643.303710938 55 493.903320312 55 340.380859375 c 0
 55 184.834960938 112.981445312 33.5205078125 216.975585938 -81.3896484375 c 0
 223.4921875 -88.58984375 230.189453125 -95.6474609375 237.064453125 -102.5546875 c 1
 220.380859375 -119.23828125 l 1
 213.348632812 -112.206054688 206.494140625 -105.029296875 199.821289062 -97.7158203125 c 0
 90.8115234375 21.7568359375 30 177.939453125 30 340.380859375 c 0
 30 501.7109375 89.982421875 656.8671875 197.590820312 776.01953125 c 0
 204.96484375 784.185546875 212.563476562 792.182617188 220.380859375 800 c 1
EndSplineSet
EndChar

StartChar: parenright
Encoding: 41 41 71
Width: 267
Flags: HMW
LayerCount: 2
Fore
SplineSet
46.68359375 800 m 1
 30 783.31640625 l 1
 38.302734375 774.975585938 46.345703125 766.415039062 54.1240234375 757.647460938 c 0
 155.58203125 643.303710938 212.064453125 493.903320312 212.064453125 340.380859375 c 0
 212.064453125 184.834960938 154.083007812 33.5205078125 50.0888671875 -81.3896484375 c 0
 43.572265625 -88.58984375 36.875 -95.6474609375 30 -102.5546875 c 1
 46.68359375 -119.23828125 l 1
 53.7158203125 -112.206054688 60.5703125 -105.029296875 67.2431640625 -97.7158203125 c 0
 176.252929688 21.7568359375 237.064453125 177.939453125 237.064453125 340.380859375 c 0
 237.064453125 501.7109375 177.08203125 656.8671875 69.4736328125 776.01953125 c 0
 62.099609375 784.185546875 54.5009765625 792.182617188 46.68359375 800 c 1
EndSplineSet
EndChar

StartChar: asterisk
Encoding: 42 42 72
Width: 353
Flags: HMW
LayerCount: 2
Fore
SplineSet
164.021484375 750 m 1
 189.021484375 750 l 1
 189.021484375 617.205078125 l 1
 315.31640625 658.240234375 l 1
 323.04296875 634.46484375 l 1
 196.748046875 593.427734375 l 1
 274.802734375 485.994140625 l 1
 254.576171875 471.30078125 l 1
 176.521484375 578.732421875 l 1
 98.466796875 471.30078125 l 1
 78.240234375 485.994140625 l 1
 156.294921875 593.427734375 l 1
 30 634.46484375 l 1
 37.7265625 658.240234375 l 1
 164.021484375 617.205078125 l 1
 164.021484375 750 l 1
EndSplineSet
EndChar

StartChar: plus
Encoding: 43 43 73
Width: 460
Flags: HMW
LayerCount: 2
Fore
SplineSet
218 575 m 1
 242 575 l 1
 242 387 l 1
 430 387 l 5
 430 363 l 1
 242 363 l 1
 242 175 l 1
 218 175 l 1
 218 363 l 1
 30 363 l 1
 30 387 l 1
 218 387 l 1
 218 575 l 1
EndSplineSet
EndChar

StartChar: comma
Encoding: 44 44 74
Width: 110
Flags: HMW
LayerCount: 2
Fore
SplineSet
30.65234375 23.0458984375 m 0
 30.65234375 36.7880859375 41.7431640625 47.9541015625 55.6015625 48 c 0
 69.458984375 48.0458984375 80.65234375 36.853515625 80.65234375 23.0458984375 c 0
 80.65234375 20.1298828125 80.1416015625 17.2353515625 79.14453125 14.4951171875 c 2
 53.4921875 -55.9814453125 l 1
 30 -47.4306640625 l 1
 47.1015625 -0.4462890625 l 1
 37.2255859375 3.1484375 30.65234375 12.5361328125 30.65234375 23.0458984375 c 0
EndSplineSet
EndChar

StartChar: period
Encoding: 46 46 75
Width: 110
Flags: HMW
LayerCount: 2
Fore
SplineSet
80 23 m 4
 80 9.2021484375 68.7978515625 -2 55 -2 c 4
 41.2021484375 -2 30 9.2021484375 30 23 c 4
 30 36.7978515625 41.2021484375 48 55 48 c 4
 68.7978515625 48 80 36.7978515625 80 23 c 4
EndSplineSet
EndChar

StartChar: hyphen
Encoding: 45 45 76
Width: 410
Flags: HMW
LayerCount: 2
Fore
SplineSet
30 387 m 1
 380 387 l 5
 380 363 l 1
 30 363 l 1
 30 387 l 1
EndSplineSet
EndChar

StartChar: slash
Encoding: 47 47 77
Width: 336
Flags: HMW
LayerCount: 2
Fore
SplineSet
279.998046875 750 m 5
 306.3515625 750 l 5
 56.353515625 0 l 5
 30 0 l 5
 279.998046875 750 l 5
EndSplineSet
EndChar

StartChar: colon
Encoding: 58 58 78
Width: 110
Flags: HMW
LayerCount: 2
Fore
SplineSet
80 23 m 0
 80 9.2021484375 68.7978515625 -2 55 -2 c 0
 41.2021484375 -2 30 9.2021484375 30 23 c 0
 30 36.7978515625 41.2021484375 48 55 48 c 0
 68.7978515625 48 80 36.7978515625 80 23 c 0
80 477 m 0
 80 463.202148438 68.7978515625 452 55 452 c 0
 41.2021484375 452 30 463.202148438 30 477 c 0
 30 490.797851562 41.2021484375 502 55 502 c 0
 68.7978515625 502 80 490.797851562 80 477 c 0
EndSplineSet
EndChar

StartChar: semicolon
Encoding: 59 59 79
Width: 110
Flags: HMW
LayerCount: 2
Fore
SplineSet
80.65234375 477.045898438 m 0
 80.65234375 463.248046875 69.4501953125 452.045898438 55.65234375 452.045898438 c 0
 41.8544921875 452.045898438 30.65234375 463.248046875 30.65234375 477.045898438 c 0
 30.65234375 490.84375 41.8544921875 502.045898438 55.65234375 502.045898438 c 0
 69.4501953125 502.045898438 80.65234375 490.84375 80.65234375 477.045898438 c 0
30.65234375 23.0458984375 m 0
 30.65234375 36.7880859375 41.7431640625 47.953125 55.6015625 48 c 0
 69.458984375 48.0458984375 80.65234375 36.8525390625 80.65234375 23.0458984375 c 0
 80.65234375 20.1298828125 80.1416015625 17.2353515625 79.14453125 14.4951171875 c 2
 53.4921875 -55.9814453125 l 1
 30 -47.4306640625 l 1
 47.1015625 -0.4462890625 l 1
 37.2255859375 3.1484375 30.65234375 12.5361328125 30.65234375 23.0458984375 c 0
EndSplineSet
EndChar

StartChar: less
Encoding: 60 60 81
Width: 446
Flags: HMW
LayerCount: 2
Fore
SplineSet
405 586 m 1
 416.29296875 564.82421875 l 1
 61.14453125 375.412109375 l 1
 416.29296875 186 l 1
 405 164.82421875 l 1
 30 364.82421875 l 1
 30 386 l 1
 405 586 l 1
EndSplineSet
EndChar

StartChar: greater
Encoding: 62 62 82
Width: 446
Flags: HMW
LayerCount: 2
Fore
SplineSet
41.29296875 586 m 5
 30 564.82421875 l 5
 385.1484375 375.412109375 l 5
 30 186 l 5
 41.29296875 164.82421875 l 5
 416.29296875 364.82421875 l 5
 416.29296875 386 l 5
 41.29296875 586 l 5
EndSplineSet
EndChar

StartChar: equal
Encoding: 61 61 83
Width: 460
Flags: HMW
LayerCount: 2
Fore
SplineSet
30 462 m 1
 430 462 l 1
 430 438 l 1
 30 438 l 1
 30 462 l 1
30 313 m 1
 430 313 l 1
 430 289 l 1
 30 289 l 1
 30 313 l 1
EndSplineSet
EndChar

StartChar: question
Encoding: 63 63 84
Width: 459
Flags: HMW
LayerCount: 2
Fore
SplineSet
229.94921875 752 m 2
 230.08203125 752 l 2
 340.330078125 752 429.94921875 662.264648438 429.94921875 552 c 2
 429.94921875 551.865234375 l 2
 429.94921875 478.0546875 389.701171875 413.478515625 330.03125 378.880859375 c 2
 329.935546875 378.82421875 l 2
 277.794921875 348.259765625 242.80078125 291.393554688 242.80078125 226.64453125 c 2
 242.8515625 175 l 1
 217.8515625 175 l 1
 217.80078125 226.64453125 l 2
 217.80078125 300.55078125 258.065429688 365.196289062 317.814453125 399.818359375 c 2
 317.890625 399.86328125 l 2
 369.9609375 430.404296875 404.94921875 487.204101562 404.94921875 551.865234375 c 2
 404.94921875 552 l 2
 404.94921875 648.76171875 326.806640625 728 230.05859375 728 c 2
 229.94921875 728 l 2
 134.520507812 728 57.169921875 651.021484375 55 556.095703125 c 1
 30 556.095703125 l 1
 32.1884765625 664.51953125 121.009765625 752 229.94921875 752 c 2
204.94921875 23 m 0
 204.94921875 36.7978515625 216.151367188 48 229.94921875 48 c 0
 243.747070312 48 254.94921875 36.7978515625 254.94921875 23 c 0
 254.94921875 9.2021484375 243.747070312 -2 229.94921875 -2 c 0
 216.151367188 -2 204.94921875 9.2021484375 204.94921875 23 c 0
EndSplineSet
EndChar

StartChar: at
Encoding: 64 64 85
Width: 934
Flags: HMW
LayerCount: 2
Fore
SplineSet
467 762 m 2
 467.147460938 762 l 2
 580.336914062 762 688.895507812 716.975585938 768.935546875 636.935546875 c 0
 849.009765625 556.861328125 894 448.2421875 894 335 c 2
 894 134.572265625 l 2
 894 64.6015625 837.026367188 7.572265625 767.063476562 7.572265625 c 2
 767 7.572265625 l 2
 697.0078125 7.572265625 640 64.580078125 640 134.572265625 c 2
 640 239.296875 l 1
 605.615234375 176.959960938 539.266601562 132.572265625 463.172851562 132.572265625 c 2
 463 132.572265625 l 2
 351.643554688 132.572265625 261 223.06640625 261 334.401367188 c 2
 261 334.572265625 l 2
 261 445.985351562 351.586914062 536.572265625 463 536.572265625 c 2
 463.153320312 536.572265625 l 2
 539.255859375 536.572265625 605.612304688 492.1875 640 429.845703125 c 1
 640 534.572265625 l 1
 665 534.572265625 l 1
 665 134.572265625 l 2
 665 78.0908203125 710.518554688 31.572265625 767 31.572265625 c 2
 767.111328125 31.572265625 l 2
 823.541015625 31.572265625 869 78.1279296875 869 134.572265625 c 2
 869 335 l 2
 869 441.622070312 826.650390625 544.865234375 751.2578125 620.2578125 c 0
 675.883789062 695.631835938 573.673828125 739 467.08203125 739 c 2
 467 739 l 2
 360.377929688 739 258.134765625 695.650390625 182.7421875 620.2578125 c 0
 107.349609375 544.865234375 65 441.622070312 65 335 c 2
 65 334.83984375 l 2
 65 228.274414062 107.38671875 125.09765625 182.7421875 49.7421875 c 0
 258.134765625 -25.650390625 360.377929688 -69 467 -69 c 1
 467 -92 l 1
 353.7578125 -92 245.138671875 -47.009765625 165.064453125 33.064453125 c 0
 85.015625 113.11328125 40 221.6875 40 334.890625 c 2
 40 335 l 2
 40 448.2421875 84.990234375 556.861328125 165.064453125 636.935546875 c 0
 245.138671875 717.009765625 353.7578125 762 467 762 c 2
463 513.572265625 m 2
 365.09765625 513.572265625 286 432.474609375 286 334.572265625 c 2
 286 334.4296875 l 2
 286 236.590820312 365.14453125 155.572265625 463 155.572265625 c 2
 463.127929688 155.572265625 l 2
 560.883789062 155.572265625 640 236.56640625 640 334.30859375 c 2
 640 334.572265625 l 2
 640 432.419921875 560.991210938 513.572265625 463.1640625 513.572265625 c 2
 463 513.572265625 l 2
EndSplineSet
EndChar

StartChar: backslash
Encoding: 92 92 86
Width: 336
Flags: HMW
LayerCount: 2
Fore
SplineSet
56.353515625 750 m 5
 30 750 l 5
 279.998046875 0 l 5
 306.3515625 0 l 5
 56.353515625 750 l 5
EndSplineSet
EndChar

StartChar: bracketleft
Encoding: 91 91 87
Width: 235
Flags: HMW
LayerCount: 2
Fore
SplineSet
30 800 m 1
 205 800 l 1
 205 776 l 1
 55 776 l 1
 55 -101 l 1
 205 -101 l 1
 205 -125 l 1
 30 -125 l 1
 30 800 l 1
EndSplineSet
EndChar

StartChar: bracketright
Encoding: 93 93 88
Width: 235
Flags: HMW
LayerCount: 2
Fore
SplineSet
205 800 m 1
 30 800 l 1
 30 776 l 1
 180 776 l 1
 180 -101 l 1
 30 -101 l 1
 30 -125 l 1
 205 -125 l 1
 205 800 l 1
EndSplineSet
EndChar

StartChar: asciicircum
Encoding: 94 94 89
Width: 464
Flags: HMW
LayerCount: 2
Fore
SplineSet
221.486328125 750 m 1
 242.810546875 750 l 1
 434.296875 437.5 l 1
 404.994140625 437.5 l 1
 232.1484375 720.046875 l 1
 59.302734375 437.5 l 1
 30 437.5 l 1
 221.486328125 750 l 1
EndSplineSet
EndChar

StartChar: underscore
Encoding: 95 95 90
Width: 460
Flags: HMW
LayerCount: 2
Fore
SplineSet
30 -25 m 5
 430 -25 l 5
 430 -49 l 5
 30 -49 l 5
 30 -25 l 5
EndSplineSet
EndChar

StartChar: grave
Encoding: 96 96 91
Width: 204
Flags: HMW
LayerCount: 2
Fore
SplineSet
30 750 m 1
 58.8671875 750 l 1
 174.3359375 550 l 1
 155.46875 550 l 1
 30 750 l 1
EndSplineSet
EndChar

StartChar: bar
Encoding: 124 124 92
Width: 125
Flags: HW
LayerCount: 2
Fore
SplineSet
50 800 m 1
 75 800 l 1
 75 -125 l 1
 50 -125 l 1
 50 800 l 1
EndSplineSet
EndChar

StartChar: braceleft
Encoding: 123 123 93
Width: 235
Flags: HW
LayerCount: 2
Fore
SplineSet
205 800 m 1
 205 776 l 1
 163.430664062 776 130 741.569335938 130 700 c 2
 130 425.5 l 2
 130 387.556640625 108.681640625 354.4375 77.412109375 337.5 c 1
 108.681640625 320.5625 130 287.443359375 130 249.5 c 2
 130 -25 l 2
 130 -66.5693359375 163.430664062 -101 205 -101 c 1
 205 -125 l 1
 149.919921875 -125 105 -80.080078125 105 -25 c 2
 105 249.5 l 2
 105 291.069335938 71.5693359375 325.5 30 325.5 c 1
 30 349.5 l 1
 71.5693359375 349.5 105 383.930664062 105 425.5 c 2
 105 700 l 2
 105 755.080078125 149.919921875 800 205 800 c 1
EndSplineSet
EndChar

StartChar: braceright
Encoding: 125 125 94
Width: 235
Flags: HWO
LayerCount: 2
Fore
SplineSet
30 800 m 1
 30 776 l 1
 71.5693359375 776 105 741.569335938 105 700 c 2
 105 425.5 l 2
 105 387.556640625 126.318359375 354.4375 157.587890625 337.5 c 1
 126.318359375 320.5625 105 287.443359375 105 249.5 c 2
 105 -25 l 2
 105 -66.5693359375 71.5693359375 -101 30 -101 c 1
 30 -125 l 1
 85.080078125 -125 130 -80.080078125 130 -25 c 2
 130 249.5 l 2
 130 291.069335938 163.430664062 325.5 205 325.5 c 1
 205 349.5 l 1
 163.430664062 349.5 130 383.930664062 130 425.5 c 2
 130 700 l 2
 130 755.080078125 85.080078125 800 30 800 c 1
EndSplineSet
EndChar
